<?xml version="1.0" encoding="utf-8"?>
<!-- Generator: Adobe Illustrator 21.0.0, SVG Export Plug-In . SVG Version: 6.00 Build 0)  -->
<svg version="1.1" id="Layer_1" xmlns="http://www.w3.org/2000/svg" xmlns:xlink="http://www.w3.org/1999/xlink" x="0px" y="0px"
	 viewBox="0 0 16 16" style="enable-background:new 0 0 16 16;" xml:space="preserve">
<style type="text/css">
	.st0{fill:#F4F4F5;}
</style>
<g>
	<rect x="0.6" y="0.6" class="st0" width="15" height="15"/>
	<path d="M16,16h-16v-16h16V16z M1,15.1h14v-14H1V15.1z"/>
</g>
<g>
	<path d="M2.9,13.4c0.5,0,1-0.2,1.3-0.5c0.3-0.4,0.4-0.9,0.4-2.4V5.2h1.2v5.8c0,1.2-0.2,2-0.8,2.6c-0.5,0.5-1.4,0.7-2,0.7L2.9,13.4z
		 M5.9,3.4c0,0.4-0.3,0.7-0.7,0.7c-0.4,0-0.7-0.3-0.7-0.7c0-0.4,0.3-0.7,0.7-0.7C5.6,2.7,5.9,3,5.9,3.4z"/>
	<path d="M7.5,10.1c0.5,0.3,1.3,0.6,2.1,0.6c1.2,0,1.9-0.6,1.9-1.5c0-0.8-0.5-1.3-1.7-1.8C8.3,6.9,7.4,6.2,7.4,4.9
		c0-1.4,1.1-2.4,2.9-2.4c0.9,0,1.6,0.2,2,0.4l-0.3,0.9c-0.3-0.2-0.9-0.4-1.7-0.4C9,3.5,8.6,4.2,8.6,4.8c0,0.8,0.5,1.2,1.8,1.7
		c1.5,0.6,2.3,1.3,2.3,2.6c0,1.4-1,2.6-3.1,2.6c-0.9,0-1.8-0.2-2.3-0.6L7.5,10.1z"/>
</g>
<g>
</g>
<g>
</g>
<g>
</g>
<g>
</g>
<g>
</g>
<g>
</g>
</svg>
